<?xml version="1.0" encoding="utf-8" ?><svg xmlns="http://www.w3.org/2000/svg" xmlns:xlink="http://www.w3.org/1999/xlink" width="915" height="915" viewBox="0 0 915 915"><path transform="scale(0.893492 0.893492)" d="M501.864 377.705C502.159 377.673 502.455 377.642 502.75 377.61C538.788 375.298 574.199 387.853 600.732 412.349C628.008 437.204 644.07 472.036 645.264 508.919C646.72 544.423 631.217 578.21 607.503 603.978C590.485 583.78 578.986 562.25 573.908 536.183C568.167 505.385 573.421 473.549 588.752 446.229C591.173 441.961 606.565 421.229 606.109 418.889C602.665 418.056 594.498 424.91 591.272 427.153C586.183 430.737 580.817 433.909 575.224 436.641C534.845 456.356 484.298 456.686 444.934 434.282C437.4 429.995 429.838 424.467 421.648 421.684C424.877 428.892 430.39 436.814 434.376 443.894C446.417 465.285 450.456 483.429 451.458 507.539C451.763 535.515 447.614 557.366 434.218 582.344C430.522 589.237 425.034 597.334 421.834 603.924L421.566 604.49C429.346 600.739 434.446 596.735 441.707 592.417C454.325 585.039 467.999 579.637 482.253 576.399C513.931 569.754 546.924 573.949 575.931 588.312C586.087 593.282 596.017 599.908 605.584 606.02C559.539 656.993 480.374 657.254 428.185 616.322C370.396 570.999 364.951 484.746 408.468 427.729C431.84 397.107 464.751 382.101 501.864 377.705Z"/><path transform="scale(0.893492 0.893492)" d="M478.341 256.218C484.963 254.695 507.312 257.801 514.712 259.093C569.291 268.62 621.597 308.948 623.29 368.025C623.402 371.924 623.849 376.553 623.138 380.363L622.758 380.493C621.607 374.305 621.438 368.218 620.024 361.731C608.55 309.094 563.164 274.514 509.101 286.189C481.876 293.958 461.451 311.297 452.55 338.69C449.27 348.625 447.756 359.268 440.494 367.341C413.811 397.001 364.391 379.774 360.909 340.332C359.476 325.683 364.859 312.078 374.7 301.275C401.52 271.832 439.778 258.95 478.341 256.218Z"/><path transform="scale(0.893492 0.893492)" d="M399.412 645.949L399.436 646.623C401.536 696.875 447.741 743.587 499.228 740.757C520.54 739.578 540.536 730.077 554.912 714.3C561.495 706.987 566.737 698.573 570.401 689.441C573.257 682.174 574.683 674.517 577.28 667.284C587.41 639.063 626.502 633.526 647.357 652.938C667.925 672.083 668.711 700.972 649.331 721.108C621.708 749.808 585.398 765.769 545.729 767.447C505.801 769.205 465.962 757.162 436.203 730.016C414.891 710.576 400.266 685.484 399.069 656.226C398.982 653.857 398.928 651.488 398.908 649.119L399.412 645.949Z"/><path transform="scale(0.893492 0.893492)" d="M684.298 365.644C707.935 362.718 727.397 379.679 739.709 397.959C764.357 434.56 773.016 479.234 765.327 522.475C756.126 574.218 715.775 624.376 659.658 623.948C655.344 623.916 650.91 624.069 646.638 623.273C647.247 622.991 655.767 622.456 657.621 622.24C660.562 621.794 663.562 621.462 666.498 620.897C737.45 606.581 770.171 523.364 713.89 471.389C694.483 453.467 679.884 458.046 663.064 446.556C653.14 439.672 646.322 429.159 644.085 417.291C641.129 400.981 648.338 383.416 661.988 374.023C669.448 368.889 675.527 367.114 684.298 365.644Z"/><path transform="scale(0.893492 0.893492)" d="M359.368 399.213C362.197 399.026 370.723 398.566 372.848 399.932C349.66 402.204 333.102 408.74 314.742 423.285C266.446 461.546 270.846 537.169 327.74 564.584C343.061 571.967 357.658 572.322 369.072 586.944C386.432 609.183 384.123 634.193 362.162 652.02C342.732 665.76 319.114 661 301.966 646.026C244.382 595.743 241.758 494.921 289.264 437.138C306.917 415.665 331.605 401.622 359.368 399.213Z"/><path fill="#16121C" fill-opacity="0.63137257" transform="scale(0.893492 0.893492)" d="M398.908 649.119C398.367 646.316 398.169 644.332 399.161 641.636C399.79 642.879 399.493 644.478 399.412 645.949L398.908 649.119Z"/></svg>